<svg width="2000" height="1200" viewBox="0 0 2000 1200" fill="none" xmlns="http://www.w3.org/2000/svg">
<g clip-path="url(#clip0)">
<rect width="2000" height="1200" fill="white"/>
<rect width="2000" height="1200" fill="#F0DEA8"/>
<path d="M341 1024C341 1235.53 170.644 1407 -39.5 1407C-249.644 1407 -420 1235.53 -420 1024C-420 812.475 -249.644 641 -39.5 641C170.644 641 341 812.475 341 1024ZM-243.099 1024C-243.099 1137.18 -151.945 1228.94 -39.5 1228.94C72.9448 1228.94 164.099 1137.18 164.099 1024C164.099 910.816 72.9448 819.063 -39.5 819.063C-151.945 819.063 -243.099 910.816 -243.099 1024Z" fill="#333333" fill-opacity="0.9"/>
<path d="M616 1086C616 1297.53 445.644 1469 235.5 1469C25.3557 1469 -145 1297.53 -145 1086C-145 874.475 25.3557 703 235.5 703C445.644 703 616 874.475 616 1086ZM31.9007 1086C31.9007 1199.18 123.055 1290.94 235.5 1290.94C347.945 1290.94 439.099 1199.18 439.099 1086C439.099 972.816 347.945 881.063 235.5 881.063C123.055 881.063 31.9007 972.816 31.9007 1086Z" fill="white" fill-opacity="0.6"/>
<path d="M823 347C823 614.306 606.306 831 339 831C71.6942 831 -145 614.306 -145 347C-145 79.6942 71.6942 -137 339 -137C606.306 -137 823 79.6942 823 347ZM80.0195 347C80.0195 490.031 195.969 605.98 339 605.98C482.031 605.98 597.98 490.031 597.98 347C597.98 203.969 482.031 88.0195 339 88.0195C195.969 88.0195 80.0195 203.969 80.0195 347Z" fill="#333333" fill-opacity="0.3"/>
</g>
<defs>
<clipPath id="clip0">
<rect width="2000" height="1200" fill="white"/>
</clipPath>
</defs>
</svg>
